<!DOCTYPE svg PUBLIC "-//W3C//DTD SVG 20010904//EN" "http://www.w3.org/TR/2001/REC-SVG-20010904/DTD/svg10.dtd">
<svg version="1.0" xmlns="http://www.w3.org/2000/svg" width="823px" height="267px" viewBox="0 0 8230 2670" preserveAspectRatio="xMidYMid meet">
<g id="layer101" fill="#373736" stroke="none">
<path d="M1540 2335 c-184 -179 -338 -325 -343 -325 -8 0 -1100 501 -1169 537 l-28 14 0 -374 0 -374 313 -131 c172 -72 330 -139 352 -148 l40 -16 -353 -347 -353 -346 3 -414 3 -413 585 633 585 633 5 -291 5 -291 334 -341 c183 -188 337 -341 342 -341 5 0 9 107 9 245 0 135 1 245 3 245 1 0 165 -54 365 -119 l362 -119 0 382 0 382 -627 153 c-346 85 -636 157 -646 160 -11 4 224 70 595 166 337 87 628 162 646 167 l32 9 0 354 c0 228 -4 355 -10 355 -8 0 -609 -164 -682 -186 -17 -5 -18 11 -18 230 0 130 -3 236 -7 236 -5 0 -159 -147 -343 -325z m303 -155 c-5 -4 -127 -40 -273 -80 -146 -40 -269 -75 -275 -78 -14 -6 31 38 310 308 l240 233 3 -188 c1 -104 -1 -192 -5 -195z m-690 -210 c9 -8 -394 -403 -416 -408 -6 -1 -165 62 -352 141 l-340 143 -3 321 -2 321 552 -255 c304 -140 557 -258 561 -263z m1405 43 l-3 -306 -662 -172 -663 -171 0 298 0 298 27 6 c16 4 307 85 648 180 341 95 628 173 638 173 16 1 17 -18 15 -306z m-1378 -388 l0 -285 -556 -602 c-306 -332 -563 -610 -570 -618 -12 -12 -14 39 -14 332 l0 347 567 555 c312 306 568 556 570 556 2 0 3 -128 3 -285z m758 -495 c337 -82 615 -150 617 -150 3 0 5 -148 5 -330 0 -181 -3 -330 -7 -330 -4 0 -159 50 -345 110 l-338 111 0 98 0 98 -252 239 c-138 132 -270 256 -292 277 -28 26 -35 36 -21 33 11 -3 296 -73 633 -156z m-375 -168 l257 -245 0 -306 -1 -306 -294 298 -295 298 0 286 0 285 38 -33 c20 -18 153 -143 295 -277z"/>
<path d="M5359 1461 c-63 -20 -99 -61 -99 -111 0 -17 6 -20 40 -20 22 0 40 4 40 10 0 22 45 50 81 50 47 0 87 -32 95 -79 l7 -33 -33 17 c-46 24 -135 17 -178 -14 -49 -35 -66 -75 -66 -161 -1 -88 21 -142 74 -177 39 -27 129 -31 173 -8 24 12 29 12 34 0 3 -9 19 -15 40 -15 l34 0 -3 224 c-3 245 -4 250 -70 299 -28 21 -127 32 -169 18z m131 -246 c30 -15 30 -17 30 -100 0 -83 0 -85 -30 -100 -48 -25 -97 -19 -131 14 -25 26 -29 37 -29 86 0 49 4 60 29 86 34 33 83 39 131 14z"/>
<path d="M3722 1305 c-61 -19 -108 -59 -139 -118 -24 -46 -27 -63 -27 -147 0 -79 4 -103 23 -143 44 -89 116 -130 226 -129 106 1 179 41 211 117 23 56 20 65 -28 65 -39 0 -45 -4 -58 -33 -21 -45 -72 -69 -138 -64 -56 4 -91 24 -126 71 -18 23 -21 42 -21 116 0 98 12 124 75 168 68 46 179 21 215 -48 13 -26 21 -30 55 -30 34 0 40 3 40 20 0 33 -37 97 -70 120 -66 47 -158 60 -238 35z"/>
<path d="M4193 1309 c-47 -14 -100 -71 -114 -121 -15 -57 -6 -150 20 -191 47 -77 173 -105 258 -57 61 34 88 88 88 175 -1 84 -27 142 -80 175 -40 25 -124 34 -172 19z m116 -83 c35 -19 51 -55 51 -116 0 -137 -165 -160 -200 -28 -29 105 59 190 149 144z"/>
<path d="M4957 1306 c-78 -28 -117 -92 -117 -191 0 -74 26 -133 71 -166 29 -21 45 -24 116 -24 79 0 83 1 116 33 37 36 57 87 57 146 l0 36 -141 0 c-125 0 -140 2 -135 16 3 9 6 19 6 23 0 5 12 20 26 35 34 33 99 36 132 6 12 -12 22 -25 22 -30 0 -6 19 -10 41 -10 41 0 41 0 35 32 -9 45 -50 84 -101 97 -56 14 -81 13 -128 -3z m158 -248 c-21 -69 -97 -90 -153 -43 -16 14 -32 34 -35 45 -5 19 0 20 95 20 98 0 99 0 93 -22z"/>
<path d="M5786 1306 c-80 -30 -116 -91 -116 -198 0 -63 30 -131 73 -162 20 -15 47 -22 100 -24 62 -3 77 -1 106 20 47 31 71 76 78 143 l6 55 -142 0 c-77 0 -141 2 -141 5 0 3 6 21 14 40 17 41 42 55 94 55 32 0 45 -6 65 -30 20 -23 34 -30 61 -30 43 0 47 17 16 67 -36 60 -137 87 -214 59z m152 -256 c-29 -86 -157 -77 -181 13 -5 15 4 17 93 17 l99 0 -11 -30z"/>
<path d="M4510 1040 l0 -270 45 0 45 0 0 270 0 270 -45 0 -45 0 0 -270z"/>
<path d="M4690 1040 l0 -270 40 0 40 0 0 270 0 270 -40 0 -40 0 0 -270z"/>
<path d="M7940 702 c0 -5 11 -36 25 -70 14 -34 25 -70 25 -79 0 -10 -34 -99 -75 -197 -41 -98 -75 -180 -75 -182 0 -2 20 -4 44 -4 l43 0 53 130 c29 71 56 130 59 130 4 0 29 -58 56 -130 l50 -130 43 0 c23 0 42 3 41 8 0 4 -46 124 -102 267 l-102 260 -43 3 c-23 2 -42 -1 -42 -6z"/>
<path d="M3696 493 c-14 -38 -59 -158 -100 -268 l-74 -200 40 -3 c23 -2 44 0 48 5 5 4 41 97 81 206 l72 197 76 -205 76 -205 43 0 c23 0 42 3 42 8 0 4 -44 125 -97 270 l-98 262 -41 0 -42 0 -26 -67z"/>
<path d="M4050 290 l0 -270 45 0 45 0 0 270 0 270 -45 0 -45 0 0 -270z"/>
<path d="M4200 548 c1 -7 45 -128 98 -268 l98 -255 44 -3 45 -3 77 203 c42 112 89 234 103 271 l25 68 -46 -3 -47 -3 -21 -58 -20 -58 -115 3 -115 3 -21 55 c-20 54 -22 55 -63 58 -30 2 -42 -1 -42 -10z m314 -210 c-4 -13 -22 -61 -40 -108 -30 -78 -33 -83 -42 -60 -40 100 -72 185 -72 187 0 2 36 3 81 3 79 0 80 0 73 -22z"/>
<path d="M5025 546 c-39 -17 -70 -52 -90 -98 -12 -29 -15 -79 -15 -233 l0 -195 40 0 40 0 0 175 c0 193 7 225 56 264 24 19 38 22 81 19 33 -3 61 -12 74 -24 42 -37 49 -73 49 -259 l0 -175 40 0 40 0 0 198 c0 170 -3 202 -19 237 -21 46 -54 79 -94 94 -39 15 -166 13 -202 -3z"/>
<path d="M5440 365 l0 -195 34 0 c19 0 36 5 38 11 3 9 19 7 57 -6 72 -23 125 -16 165 24 l31 31 3 165 3 165 -40 0 -41 0 0 -135 c0 -131 -1 -137 -25 -160 -28 -29 -50 -31 -105 -9 l-40 16 0 144 0 144 -40 0 -40 0 0 -195z"/>
<path d="M5860 365 l0 -195 45 0 45 0 0 195 0 195 -45 0 -45 0 0 -195z"/>
<path d="M6070 378 c-40 -101 -74 -189 -77 -195 -4 -9 8 -13 39 -13 l44 0 49 130 c28 71 53 130 56 130 3 0 28 -57 55 -127 l49 -128 44 -3 c51 -4 55 -25 -39 212 l-67 171 -41 3 -40 3 -72 -183z"/>
<path d="M6470 538 c-58 -40 -74 -71 -78 -153 -2 -40 1 -89 8 -109 45 -137 259 -155 325 -26 8 16 18 53 21 84 l7 56 -142 0 c-83 0 -141 4 -141 10 0 24 26 63 51 76 46 23 87 18 119 -16 21 -23 37 -30 65 -30 35 0 37 1 31 26 -18 72 -71 104 -169 104 -50 0 -71 -5 -97 -22z m190 -232 c0 -8 -11 -27 -24 -42 -41 -49 -134 -29 -157 34 -8 22 -7 22 86 22 76 0 95 -3 95 -14z"/>
<path d="M6810 365 l0 -195 40 0 c29 0 40 4 40 15 0 18 8 18 40 0 14 -8 40 -14 58 -15 31 0 32 1 32 40 0 36 -2 40 -25 40 -14 0 -41 7 -60 14 l-35 15 0 140 0 141 -45 0 -45 0 0 -195z"/>
<path d="M7104 541 c-36 -22 -42 -30 -54 -71 -9 -30 -9 -30 35 -30 34 0 45 4 50 19 16 53 155 38 155 -15 0 -21 -40 -42 -95 -50 -104 -14 -155 -64 -141 -137 8 -42 39 -72 91 -86 56 -15 98 -14 144 5 43 17 65 43 73 87 5 26 4 27 -37 27 -34 0 -44 -4 -48 -20 -12 -46 -115 -52 -138 -8 -10 18 -8 24 10 40 13 9 39 20 59 23 126 20 162 47 162 119 0 81 -50 116 -162 116 -54 0 -81 -5 -104 -19z"/>
<path d="M7440 365 l0 -195 40 0 40 0 0 195 0 195 -40 0 -40 0 0 -195z"/>
<path d="M7692 545 c-44 -19 -52 -47 -52 -181 l0 -114 -35 0 c-34 0 -35 -1 -35 -40 0 -39 1 -40 35 -40 35 0 35 0 35 -45 l0 -45 40 0 40 0 0 45 0 45 55 0 55 0 0 40 0 40 -55 0 -55 0 0 99 c0 115 9 131 71 131 39 0 39 0 39 40 l0 40 -52 0 c-29 -1 -68 -7 -86 -15z"/>
<path d="M5860 75 l0 -45 45 0 45 0 0 45 0 45 -45 0 -45 0 0 -45z"/>
<path d="M7430 75 l0 -45 45 0 45 0 0 45 0 45 -45 0 -45 0 0 -45z"/>
</g>


</svg>